<svg xmlns="http://www.w3.org/2000/svg" xmlns:xlink="http://www.w3.org/1999/xlink" viewBox="0 0 256.02 152.32"><defs><style>.cls-1{fill:url(#linear-gradient);}.cls-2{fill:url(#linear-gradient-2);}.cls-3{fill:url(#linear-gradient-3);}</style><linearGradient id="linear-gradient" x1="118.03" y1="42.1" x2="180.66" y2="42.1" gradientUnits="userSpaceOnUse"><stop offset="0" stop-color="#aaefff"/><stop offset="0" stop-color="#dfdfdf"/><stop offset="0.99" stop-color="#f4f4f4"/></linearGradient><linearGradient id="linear-gradient-2" x1="142.74" y1="134.26" x2="256.02" y2="134.26" xlink:href="#linear-gradient"/><linearGradient id="linear-gradient-3" y1="82.24" x2="233.02" y2="82.24" gradientUnits="userSpaceOnUse"><stop offset="0" stop-color="#eee"/><stop offset="1" stop-color="#999"/></linearGradient></defs><g id="Layer_2" data-name="Layer 2"><g id="Layer_1-2" data-name="Layer 1"><path class="cls-1" d="M169.23,59.85c-20.62,6.94-34.3,23.32-35.13,24.34A81,81,0,0,0,118,52.83,76.58,76.58,0,0,1,180.66,0a74.84,74.84,0,0,0-11.43,59.85Z"/><path class="cls-2" d="M256,116.2a76.51,76.51,0,0,1-113.28,19c24.73.18,50.67,1.19,73.44,0a33.82,33.82,0,0,0,14.87-18.46,75.53,75.53,0,0,0,25-.51Z"/><path class="cls-3" d="M231.05,116.71a33.82,33.82,0,0,1-14.87,18.46c-22.77,1.17-48.71.16-73.44,0-11.07-.08-21.9,0-32.1.53l-27.53-1C35.73,139.18,4.52,122.5.52,96.42-3.34,71.23,15.39,49.61,18.36,47,23,42.89,52.3,19.64,89.23,32.69c1.57.56,3.1,1.16,4.57,1.81A66.29,66.29,0,0,1,118,52.83,81,81,0,0,1,134.1,84.19c.83-1,14.51-17.4,35.13-24.34a54.92,54.92,0,0,1,28.09-2.17,45.55,45.55,0,0,1,10.58,3.9C217.05,66.18,229,75.4,232,92.35,233.44,100.67,233.55,109.1,231.05,116.71Z"/></g></g></svg>