<svg xmlns="http://www.w3.org/2000/svg" xmlns:xlink="http://www.w3.org/1999/xlink" viewBox="0 0 147.32 158.38"><defs><style>.cls-1,.cls-2,.cls-3,.cls-4,.cls-5,.cls-6,.cls-7,.cls-8,.cls-9{fill:none;stroke-linecap:round;stroke-miterlimit:10;stroke-width:10px;}.cls-1{stroke:url(#linear-gradient);}.cls-2{stroke:url(#linear-gradient-2);}.cls-3{stroke:url(#linear-gradient-3);}.cls-4{stroke:url(#linear-gradient-4);}.cls-5{stroke:url(#linear-gradient-5);}.cls-6{stroke:url(#linear-gradient-6);}.cls-7{stroke:url(#linear-gradient-7);}.cls-8{stroke:url(#linear-gradient-8);}.cls-9{stroke:url(#linear-gradient-9);}</style><linearGradient id="linear-gradient" x1="73.66" x2="73.66" y2="158.38" gradientUnits="userSpaceOnUse"><stop offset="0" stop-color="#aaefff"/><stop offset="1" stop-color="#aafff6"/></linearGradient><linearGradient id="linear-gradient-2" x1="71.71" y1="7.81" x2="71.71" y2="43.07" xlink:href="#linear-gradient"/><linearGradient id="linear-gradient-3" x1="75.05" y1="122.56" x2="75.05" y2="157.82" xlink:href="#linear-gradient"/><linearGradient id="linear-gradient-4" x1="67.53" y1="-12.11" x2="67.53" y2="95.52" gradientTransform="translate(15.97 30.54) rotate(8.82)" xlink:href="#linear-gradient"/><linearGradient id="linear-gradient-5" x1="114.21" y1="-21.1" x2="114.21" y2="18.34" gradientTransform="translate(15.97 30.54) rotate(8.82)" xlink:href="#linear-gradient"/><linearGradient id="linear-gradient-6" x1="14.98" y1="69.35" x2="14.98" y2="108.79" gradientTransform="translate(15.97 30.54) rotate(8.82)" xlink:href="#linear-gradient"/><linearGradient id="linear-gradient-7" x1="76.92" y1="40.55" x2="76.92" y2="133.53" xlink:href="#linear-gradient"/><linearGradient id="linear-gradient-8" x1="126.94" y1="103.17" x2="126.94" y2="142.86" xlink:href="#linear-gradient"/><linearGradient id="linear-gradient-9" x1="21.24" y1="26.64" x2="21.24" y2="66.33" xlink:href="#linear-gradient"/></defs><g id="Layer_2" data-name="Layer 2"><g id="Layer_1-2" data-name="Layer 1"><path class="cls-1" d="M72.82,5l1.67,148.38"/><polyline class="cls-2" points="53.86 13.37 73.37 35.12 89.56 12.81"/><polyline class="cls-3" points="92.9 152.26 73.39 130.51 57.2 152.82"/><path class="cls-4" d="M139,42.44,13.6,121.77"/><polyline class="cls-5" points="121.92 30.69 113.66 58.72 141.14 60.78"/><polyline class="cls-6" points="24.22 136.85 32.49 108.82 5 106.76"/><path class="cls-7" d="M138.42,128.53l-123-83"/><polyline class="cls-8" points="142.32 108.17 113.33 111.86 122.49 137.86"/><polyline class="cls-9" points="5.86 61.33 34.85 57.64 25.7 31.64"/></g></g></svg>