<svg xmlns="http://www.w3.org/2000/svg" xmlns:xlink="http://www.w3.org/1999/xlink" viewBox="0 0 233.02 137.19"><defs><style>.cls-1{fill:url(#linear-gradient);}.cls-2{fill:url(#linear-gradient-2);}</style><linearGradient id="linear-gradient" x1="93.8" y1="42.83" x2="208" y2="42.83" gradientUnits="userSpaceOnUse"><stop offset="0" stop-color="#ebc478"/><stop offset="1" stop-color="#db8a53"/></linearGradient><linearGradient id="linear-gradient-2" y1="83.7" x2="233.02" y2="83.7" gradientUnits="userSpaceOnUse"><stop offset="0" stop-color="#eee"/><stop offset="1" stop-color="#999"/></linearGradient></defs><g id="Layer_2" data-name="Layer 2"><g id="Layer_1-2" data-name="Layer 1"><path class="cls-1" d="M208,59.84c0,1.07,0,2.14-.1,3.2a45.55,45.55,0,0,0-10.58-3.9c-35.5-6.69-62.06,25.07-63.22,26.51-.56-2.47-8.7-35.81-40.3-49.69A59.53,59.53,0,0,1,208,59.84Z"/><path class="cls-2" d="M110.64,137.14c33-1.7,72.57,1.19,105.54-.51,16.4-10.24,18.62-26.72,15.81-42.82-3-17-14.94-26.17-24.09-30.77a45.55,45.55,0,0,0-10.58-3.9c-35.5-6.69-62.06,25.07-63.22,26.51-.56-2.47-8.7-35.81-40.3-49.69-1.47-.65-3-1.25-4.57-1.81C52.3,21.1,23,44.35,18.36,48.43c-3,2.64-21.7,24.26-17.84,49.45,4,26.08,35.21,42.76,82.59,38.24Z"/></g></g></svg>