<svg xmlns="http://www.w3.org/2000/svg" xmlns:xlink="http://www.w3.org/1999/xlink" viewBox="0 0 233.02 172.07"><defs><style>.cls-1{fill:url(#linear-gradient);}.cls-2{fill:none;stroke-linecap:round;stroke-miterlimit:10;stroke-width:10px;stroke:url(#linear-gradient-2);}</style><linearGradient id="linear-gradient" y1="53.49" x2="233.02" y2="53.49" gradientUnits="userSpaceOnUse"><stop offset="0" stop-color="#b4b4b4"/><stop offset="0.33" stop-color="#777"/></linearGradient><linearGradient id="linear-gradient-2" x1="89.52" y1="79.47" x2="89.52" y2="172.07" gradientUnits="userSpaceOnUse"><stop offset="0" stop-color="#ffa415"/><stop offset="1" stop-color="#d4b700"/></linearGradient></defs><g id="Layer_2" data-name="Layer 2"><g id="Layer_1-2" data-name="Layer 1"><path class="cls-1" d="M83.12,105.91C35.73,110.42,4.52,93.75.52,67.67-3.34,42.48,15.39,20.86,18.37,18.21,23,14.13,52.3-9.12,89.23,3.94c35.41,12.52,44.28,48.92,44.87,51.49,1.16-1.43,27.72-33.19,63.22-26.51,4,.74,30.08,8.45,34.67,34.67,2.82,16.1.6,32.58-15.81,42.83-33,1.7-72.56-1.19-105.53.51"/><path class="cls-2" d="M114.81,84.47,81.17,126a4.12,4.12,0,0,0,3.3,6.72l29.28-.69a1.44,1.44,0,0,1,.8,2.65L63.82,167.07"/></g></g></svg>