<svg xmlns="http://www.w3.org/2000/svg" xmlns:xlink="http://www.w3.org/1999/xlink" viewBox="0 0 204.91 122"><defs><style>.cls-1,.cls-2,.cls-3{fill:none;stroke-linecap:round;stroke-miterlimit:10;stroke-width:10px;}.cls-1{stroke:url(#linear-gradient);}.cls-2{stroke:url(#linear-gradient-2);}.cls-3{stroke:url(#linear-gradient-3);}</style><linearGradient id="linear-gradient" x1="80.09" y1="56.97" x2="80.09" gradientUnits="userSpaceOnUse"><stop offset="0" stop-color="#b4b4b4"/><stop offset="0.33" stop-color="#777"/></linearGradient><linearGradient id="linear-gradient-2" x1="102.45" y1="74.34" x2="102.45" y2="17.58" xlink:href="#linear-gradient"/><linearGradient id="linear-gradient-3" x1="109.41" y1="127.77" x2="109.41" y2="83.58" gradientTransform="translate(-15.43 -1.89) rotate(-1.43)" xlink:href="#linear-gradient"/></defs><g id="Layer_2" data-name="Layer 2"><g id="Layer_1-2" data-name="Layer 1"><path class="cls-1" d="M16.36,52c19.37-.14,90.65-.27,110-.41,1.77-.56,13.1-4.35,16.48-14.42,4.71-14-8.6-32.27-22.66-32.14-10.14.1-22.41,9.79-20.6,19.37,1.17,6.2,8,11.38,16.89,12.77"/><path class="cls-2" d="M5,68.51l175.11.82c.71-.18,15.3-4.16,18.95-17.3,3.3-11.85-3.34-27.35-15.24-29.26-8-1.29-16.95,3.9-21.84,12.78"/><path class="cls-3" d="M32.61,85.51c34.22.25,68.38.64,102.59.89,21.43-.83,22.88,3.41,24.65,10.78,1.68,7-4.72,13.84-5,14.14A19.23,19.23,0,0,1,141.79,117"/></g></g></svg>